<svg width="1584" height="396" viewBox="0 0 1584 396" fill="none" xmlns="http://www.w3.org/2000/svg">
<rect width="1584" height="396" fill="#F5F5F5"/>
<g id="Awesome banner" clip-path="url(#clip0_0_1)">
<rect width="1584" height="396" fill="url(#paint0_linear_0_1)"/>
<ellipse id="Ellipse 2" cx="323" cy="64" rx="285" ry="288" fill="url(#paint1_linear_0_1)" fill-opacity="0.1"/>
<g id="copyright">
<path d="M75.95 334.52L72.30 334.52L72.30 311.16L77.20 311.16L83.70 330.04Q83.60 329.02 83.50 327.62Q83.41 326.23 83.33 324.79Q83.25 323.35 83.25 322.23L83.25 311.16L86.90 311.16L86.90 334.52L82 334.52L75.57 315.64Q75.63 316.57 75.73 317.88Q75.82 319.19 75.89 320.57Q75.95 321.94 75.95 323.10L75.95 334.52M98.80 334.84Q96.46 334.84 94.67 333.96Q92.88 333.08 91.89 331.53Q90.90 329.98 90.90 327.93Q90.90 325.78 92.13 324.18Q93.36 322.58 95.34 322.17L95.34 322.10Q93.65 321.75 92.61 320.38Q91.57 319 91.57 317.11Q91.57 315.26 92.48 313.85Q93.39 312.44 95.02 311.64Q96.66 310.84 98.80 310.84Q100.94 310.84 102.59 311.64Q104.24 312.44 105.15 313.85Q106.06 315.26 106.06 317.11Q106.06 319 105.01 320.38Q103.95 321.75 102.26 322.10L102.26 322.17Q104.24 322.58 105.47 324.18Q106.70 325.78 106.70 327.93Q106.70 329.98 105.71 331.53Q104.72 333.08 102.93 333.96Q101.14 334.84 98.80 334.84M98.80 320.73Q100.30 320.73 101.23 319.82Q102.16 318.90 102.16 317.46Q102.16 315.99 101.23 315.08Q100.30 314.17 98.80 314.17Q97.30 314.17 96.37 315.08Q95.44 315.99 95.44 317.46Q95.44 318.90 96.37 319.82Q97.30 320.73 98.80 320.73M98.80 331.45Q100.56 331.45 101.68 330.42Q102.80 329.40 102.80 327.74Q102.80 326.04 101.68 325Q100.56 323.96 98.80 323.96Q97.04 323.96 95.92 325Q94.80 326.04 94.80 327.74Q94.80 329.40 95.92 330.42Q97.04 331.45 98.80 331.45M114.35 334.52L110.70 334.52L110.70 311.16L115.60 311.16L122.10 330.04Q122 329.02 121.90 327.62Q121.81 326.23 121.73 324.79Q121.65 323.35 121.65 322.23L121.65 311.16L125.30 311.16L125.30 334.52L120.40 334.52L113.97 315.64Q114.03 316.57 114.13 317.88Q114.22 319.19 114.29 320.57Q114.35 321.94 114.35 323.10" fill="white" fill-opacity="0.9"/>
<path d="M161.48 325.24L151.24 325.24L151.24 322.68L161.48 322.68" fill="white" fill-opacity="0.9"/>
<path d="M195.02 334.84Q191.82 334.84 189.96 333.05Q188.11 331.26 188.11 328.12L188.11 317.56Q188.11 314.42 189.96 312.63Q191.82 310.84 195.02 310.84Q198.15 310.84 200.01 312.65Q201.87 314.46 201.87 317.56L198.99 317.56Q198.99 315.58 197.95 314.50Q196.91 313.43 195.02 313.43Q193.13 313.43 192.06 314.50Q190.99 315.58 190.99 317.56L190.99 328.12Q190.99 330.10 192.06 331.18Q193.13 332.25 195.02 332.25Q196.91 332.25 197.95 331.18Q198.99 330.10 198.99 328.12L201.87 328.12Q201.87 331.22 200.01 333.03Q198.15 334.84 195.02 334.84" fill="white" fill-opacity="0.9"/>
<path d="M213.96 334.84Q210.83 334.84 209 333.02Q207.18 331.19 207.18 327.80L207.18 317.88Q207.18 314.49 209 312.66Q210.83 310.84 213.96 310.84Q217.10 310.84 218.92 312.66Q220.75 314.49 220.75 317.85L220.75 327.80Q220.75 331.19 218.92 333.02Q217.10 334.84 213.96 334.84M213.96 332.25Q215.85 332.25 216.86 331.18Q217.87 330.10 217.87 328.12L217.87 317.56Q217.87 315.58 216.86 314.50Q215.85 313.43 213.96 313.43Q212.11 313.43 211.08 314.50Q210.06 315.58 210.06 317.56L210.06 328.12Q210.06 330.10 211.08 331.18Q212.11 332.25 213.96 332.25" fill="white" fill-opacity="0.9"/>
<path d="M228.65 334.52L225.87 334.52L225.87 311.16L230.12 311.16L233.10 321.27L236.20 311.16L240.46 311.16L240.46 334.52L237.67 334.52L237.67 323.48Q237.67 321.91 237.72 319.88Q237.77 317.85 237.87 315.77Q237.96 313.69 238.09 312.02L234.31 324.09L231.82 324.09L228.20 312.31Q228.46 314.68 228.55 317.50Q228.65 320.31 228.65 323.48" fill="white" fill-opacity="0.9"/>
<path d="M247.85 334.52L245.07 334.52L245.07 311.16L249.32 311.16L252.30 321.27L255.40 311.16L259.66 311.16L259.66 334.52L256.87 334.52L256.87 323.48Q256.87 321.91 256.92 319.88Q256.97 317.85 257.07 315.77Q257.16 313.69 257.29 312.02L253.51 324.09L251.02 324.09L247.40 312.31Q247.66 314.68 247.75 317.50Q247.85 320.31 247.85 323.48" fill="white" fill-opacity="0.9"/>
<path d="M271.56 334.84Q268.30 334.84 266.57 333.03Q264.84 331.22 264.84 328.12L264.84 311.16L267.72 311.16L267.72 328.12Q267.72 330.04 268.67 331.16Q269.61 332.28 271.56 332.28Q273.48 332.28 274.44 331.16Q275.40 330.04 275.40 328.12L275.40 311.16L278.28 311.16L278.28 328.12Q278.28 331.26 276.57 333.05Q274.86 334.84 271.56 334.84" fill="white" fill-opacity="0.9"/>
<path d="M286.83 334.52L284.04 334.52L284.04 311.16L287.88 311.16L295.02 331.16Q294.95 330.36 294.87 329.19Q294.79 328.02 294.75 326.73Q294.70 325.43 294.70 324.28L294.70 311.16L297.48 311.16L297.48 334.52L293.64 334.52L286.54 314.52Q286.60 315.29 286.67 316.46Q286.73 317.62 286.78 318.92Q286.83 320.22 286.83 321.40" fill="white" fill-opacity="0.9"/>
<path d="M316.20 334.52L303.72 334.52L303.72 331.90L308.49 331.90L308.49 313.78L303.72 313.78L303.72 311.16L316.20 311.16L316.20 313.78L311.43 313.78L311.43 331.90L316.20 331.90" fill="white" fill-opacity="0.9"/>
<path d="M330.60 334.52L327.72 334.52L327.72 313.78L321.32 313.78L321.32 311.16L337 311.16L337 313.78L330.60 313.78" fill="white" fill-opacity="0.9"/>
<path d="M349.80 334.52L346.92 334.52L346.92 325.78L339.88 311.16L342.95 311.16L347.50 320.76Q347.88 321.56 348.11 322.12Q348.33 322.68 348.39 322.94Q348.46 322.68 348.70 322.12Q348.94 321.56 349.32 320.76L353.87 311.16L356.84 311.16L349.80 325.78" fill="white" fill-opacity="0.9"/>
<path d="M382.83 334.52L380.04 334.52L380.04 311.16L383.88 311.16L391.02 331.16Q390.95 330.36 390.87 329.19Q390.79 328.02 390.75 326.73Q390.70 325.43 390.70 324.28L390.70 311.16L393.48 311.16L393.48 334.52L389.64 334.52L382.54 314.52Q382.60 315.29 382.67 316.46Q382.73 317.62 382.78 318.92Q382.83 320.22 382.83 321.40" fill="white" fill-opacity="0.9"/>
<path d="M405.96 334.84Q402.83 334.84 401 333.02Q399.18 331.19 399.18 327.80L399.18 317.88Q399.18 314.49 401 312.66Q402.83 310.84 405.96 310.84Q409.10 310.84 410.92 312.66Q412.75 314.49 412.75 317.85L412.75 327.80Q412.75 331.19 410.92 333.02Q409.10 334.84 405.96 334.84M405.96 332.25Q407.85 332.25 408.86 331.18Q409.87 330.10 409.87 328.12L409.87 317.56Q409.87 315.58 408.86 314.50Q407.85 313.43 405.96 313.43Q404.11 313.43 403.08 314.50Q402.06 315.58 402.06 317.56L402.06 328.12Q402.06 330.10 403.08 331.18Q404.11 332.25 405.96 332.25" fill="white" fill-opacity="0.9"/>
<path d="M424.55 334.52L418.51 334.52L418.51 311.16L424.55 311.16Q426.83 311.16 428.47 312.02Q430.12 312.89 431.03 314.46Q431.95 316.02 431.95 318.17L431.95 327.48Q431.95 329.62 431.03 331.21Q430.12 332.79 428.47 333.66Q426.83 334.52 424.55 334.52M421.39 313.72L421.39 331.96L424.55 331.96Q426.67 331.96 427.87 330.78Q429.07 329.59 429.07 327.48L429.07 318.17Q429.07 316.09 427.87 314.90Q426.67 313.72 424.55 313.72" fill="white" fill-opacity="0.9"/>
<path d="M451.40 334.52L437.96 334.52L437.96 311.16L451.40 311.16L451.40 313.78L440.81 313.78L440.81 321.02L450.28 321.02L450.28 323.58L440.81 323.58L440.81 331.90L451.40 331.90" fill="white" fill-opacity="0.9"/>
<path d="M463.69 334.84Q460.30 334.84 458.28 333.05Q456.27 331.26 456.27 328.12L459.15 328.12Q459.15 330.07 460.39 331.18Q461.64 332.28 463.69 332.28Q465.67 332.28 466.86 331.13Q468.04 329.98 468.04 328.12Q468.04 326.71 467.29 325.67Q466.54 324.63 465.13 324.25L461.58 323.26Q459.37 322.62 458.11 320.97Q456.84 319.32 456.84 317.08Q456.84 315.22 457.67 313.82Q458.51 312.41 460.01 311.62Q461.51 310.84 463.47 310.84Q465.45 310.84 466.97 311.62Q468.49 312.41 469.35 313.80Q470.22 315.19 470.22 317.02L467.34 317.02Q467.34 315.42 466.25 314.41Q465.16 313.40 463.47 313.40Q461.77 313.40 460.71 314.41Q459.66 315.42 459.66 317.02Q459.66 318.30 460.35 319.21Q461.03 320.12 462.28 320.47L465.93 321.50Q468.27 322.14 469.56 323.91Q470.86 325.69 470.86 328.12Q470.86 331.19 468.91 333.02Q466.95 334.84 463.69 334.84" fill="white" fill-opacity="0.9"/>
</g>
<path d="M74.37 197.64L72.21 197.64L72.21 180.12L77.85 180.12Q80.30 180.12 81.75 181.52Q83.20 182.93 83.20 185.28Q83.20 187.63 81.75 189.04Q80.30 190.44 77.85 190.44L74.37 190.44L74.37 197.64M74.37 182.06L74.37 188.50L77.85 188.50Q79.26 188.50 80.12 187.62Q80.97 186.74 80.97 185.28Q80.97 183.79 80.12 182.93Q79.26 182.06 77.85 182.06" fill="white" fill-opacity="0.7"/>
<path d="M91.58 197.88Q89.30 197.88 87.93 196.52Q86.56 195.17 86.56 192.84L86.56 184.44L88.72 184.44L88.72 192.84Q88.72 194.28 89.49 195.13Q90.26 195.98 91.58 195.98Q92.92 195.98 93.70 195.13Q94.48 194.28 94.48 192.84L94.48 184.44L96.64 184.44L96.64 192.84Q96.64 195.17 95.25 196.52Q93.86 197.88 91.58 197.88" fill="white" fill-opacity="0.7"/>
<path d="M106.77 197.88Q105.28 197.88 104.32 197.15Q103.36 196.42 103.19 195.12L103.17 195.12L103.17 197.64L101.01 197.64L101.01 180.12L103.17 180.12L103.17 183.96L103.12 186.96L103.14 186.96Q103.34 185.69 104.31 184.94Q105.28 184.20 106.77 184.20Q108.76 184.20 109.94 185.52Q111.11 186.84 111.11 189.12L111.11 192.98Q111.11 195.24 109.94 196.56Q108.76 197.88 106.77 197.88M106.05 196.01Q107.42 196.01 108.18 195.29Q108.95 194.57 108.95 192.96L108.95 189.12Q108.95 187.49 108.18 186.78Q107.42 186.07 106.05 186.07Q104.73 186.07 103.95 186.91Q103.17 187.75 103.17 189.24L103.17 192.84Q103.17 194.33 103.95 195.17Q104.73 196.01 106.05 196.01" fill="white" fill-opacity="0.7"/>
<path d="M126.40 197.64L122.32 197.64Q120.57 197.64 119.52 196.62Q118.48 195.60 118.48 193.92L118.48 182.09L113.92 182.09L113.92 180.12L120.64 180.12L120.64 193.92Q120.64 194.74 121.10 195.20Q121.55 195.67 122.32 195.67L126.40 195.67" fill="white" fill-opacity="0.7"/>
<path d="M140.92 197.64L129.64 197.64L129.64 195.67L134.32 195.67L134.32 186.41L130.12 186.41L130.12 184.44L136.48 184.44L136.48 195.67L140.92 195.67L140.92 197.64M135.16 182.06Q134.37 182.06 133.91 181.66Q133.46 181.25 133.46 180.55Q133.46 179.83 133.91 179.41Q134.37 178.99 135.16 178.99Q135.95 178.99 136.41 179.41Q136.86 179.83 136.86 180.55Q136.86 181.25 136.41 181.66Q135.95 182.06 135.16 182.06" fill="white" fill-opacity="0.7"/>
<path d="M149.39 197.88Q146.99 197.88 145.55 196.54Q144.11 195.19 144.11 192.84L144.11 189.24Q144.11 186.89 145.55 185.54Q146.99 184.20 149.39 184.20Q151.67 184.20 153.08 185.42Q154.48 186.65 154.55 188.76L152.39 188.76Q152.32 187.49 151.53 186.80Q150.74 186.12 149.39 186.12Q147.98 186.12 147.12 186.92Q146.27 187.73 146.27 189.22L146.27 192.84Q146.27 194.33 147.12 195.14Q147.98 195.96 149.39 195.96Q150.74 195.96 151.53 195.26Q152.32 194.57 152.39 193.32L154.55 193.32Q154.48 195.43 153.08 196.66Q151.67 197.88 149.39 197.88" fill="white" fill-opacity="0.7"/>
<path d="M174.21 197.64LNaN 197.64L176.56 180.12L179.46 180.12LNaN 197.64L181.82 197.64L180.66 192.98L175.36 192.98L174.21 197.64M177.14 185.74L175.79 191.16L180.21 191.16L178.86 185.76Q178.48 184.22 178.26 183.19Q178.05 182.16 NaN 181.85Q177.95 182.16 177.74 183.19Q177.52 184.22 177.14 185.74" fill="white" fill-opacity="0.7"/>
<path d="M189.57 197.64L187.41 197.64L187.41 180.12L193.05 180.12Q195.50 180.12 196.95 181.52Q198.40 182.93 198.40 185.28Q198.40 187.63 196.95 189.04Q195.50 190.44 193.05 190.44L189.57 190.44L189.57 197.64M189.57 182.06L189.57 188.50L193.05 188.50Q194.46 188.50 195.32 187.62Q196.17 186.74 196.17 185.28Q196.17 183.79 195.32 182.93Q194.46 182.06 193.05 182.06" fill="white" fill-opacity="0.7"/>
<path d="M211.48 197.64L202.12 197.64L202.12 195.67L205.70 195.67L205.70 182.09L202.12 182.09L202.12 180.12L211.48 180.12L211.48 182.09L207.90 182.09L207.90 195.67L211.48 195.67" fill="white" fill-opacity="0.7"/>
<path d="M221.73 197.83L220.67 197.83Q218.46 197.83 217.25 196.84Q216.04 195.84 216.04 194.02L218.20 194.02Q218.20 194.93 218.85 195.44Q219.50 195.96 220.67 195.96L221.73 195.96Q222.93 195.96 223.59 195.43Q224.25 194.90 224.25 193.94Q224.25 192.24 222.69 192.02L219.04 191.50Q217.70 191.30 216.95 190.38Q216.21 189.46 216.21 187.94Q216.21 186.22 217.40 185.23Q218.58 184.25 220.67 184.25L221.73 184.25Q223.65 184.25 224.86 185.20Q226.07 186.14 226.17 187.68L223.98 187.68Q223.94 186.98 223.32 186.53Q222.71 186.07 221.73 186.07L220.67 186.07Q219.57 186.07 218.94 186.58Q218.32 187.08 218.32 187.94Q218.32 189.34 219.59 189.53LNaN 190.01Q226.36 190.49 226.36 193.94Q226.36 195.79 225.15 196.81Q223.94 197.83 221.73 197.83" fill="white" fill-opacity="0.7"/>
<path d="M250.12 197.64L247.96 197.64L247.96 188.21L244.12 188.21L244.12 186.24L247.96 186.24L247.96 183.48Q247.96 181.92 248.94 181.02Q249.93 180.12 251.66 180.12L255.52 180.12L255.52 182.09L251.66 182.09Q250.12 182.09 250.12 183.48L250.12 186.24L255.52 186.24L255.52 188.21L250.12 188.21" fill="white" fill-opacity="0.7"/>
<path d="M264.40 197.83Q262.02 197.83 260.62 196.44Q259.22 195.05 259.22 192.55L259.22 189.53Q259.22 187.01 260.61 185.63QNaN 184.25 264.40 184.25Q266.80 184.25 268.19 185.63Q269.58 187.01 269.58 189.53L269.58 192.55Q269.58 195.05 268.18 196.44Q266.78 197.83 264.40 197.83M264.40 195.91Q265.82 195.91 266.62 195.12Q267.42 194.33 267.42 192.79L267.42 189.29Q267.42 187.75 266.62 186.96Q265.82 186.17 264.40 186.17Q263.01 186.17 262.19 186.96Q261.38 187.75 261.38 189.29L261.38 192.79Q261.38 194.33 262.19 195.12Q263.01 195.91 264.40 195.91" fill="white" fill-opacity="0.7"/>
<path d="M276.45 197.64L274.29 197.64L274.29 184.44L276.45 184.44L276.45 186.96L276.50 186.96Q276.66 185.69 277.58 184.94Q278.49 184.20 280.02 184.20Q282.09 184.20 283.20 185.44Q284.32 186.67 284.32 188.95L284.32 190.08L282.16 190.08L282.16 188.95Q282.16 186.07 279.35 186.07Q277.94 186.07 277.19 186.89Q276.45 187.70 276.45 189.24" fill="white" fill-opacity="0.7"/>
<path d="M303.86 197.64L301.84 197.64L301.84 184.44L303.71 184.44L303.71 186.19L303.76 186.19Q303.88 185.30 304.47 184.75Q305.06 184.20 305.97 184.20Q306.83 184.20 307.43 184.70Q308.03 185.21 308.30 186.07L308.32 186.07Q308.49 185.21 309.08 184.70Q309.66 184.20 310.58 184.20Q311.85 184.20 312.60 185.15Q313.36 186.10 313.36 187.61L313.36 197.64L311.34 197.64L311.34 187.58Q311.34 186.79 310.96 186.32Q310.58 185.86 309.90 185.86Q309.26 185.86 308.87 186.31Q308.49 186.77 308.49 187.56L308.49 197.64L306.71 197.64L306.71 187.58Q306.71 186.79 306.33 186.32Q305.94 185.86 305.30 185.86Q304.62 185.86 304.24 186.31Q303.86 186.77 303.86 187.56" fill="white" fill-opacity="0.7"/>
<path d="M320.85 197.88Q318.81 197.88 317.61 196.74Q316.41 195.60 316.41 193.75Q316.41 192.53 316.96 191.62Q317.51 190.70 318.50 190.19Q319.48 189.67 320.75 189.67L324.83 189.67L324.83 188.64Q324.83 186.07 322.02 186.07Q320.78 186.07 320.01 186.53Q319.24 186.98 319.19 187.80L317.03 187.80Q317.15 186.24 318.48 185.22Q319.82 184.20 322.02 184.20Q324.42 184.20 325.71 185.35Q326.99 186.50 326.99 188.57L326.99 197.64L324.86 197.64L324.86 195.24L324.81 195.24Q324.62 196.46 323.58 197.17Q322.55 197.88 320.85 197.88M321.38 196.06Q322.96 196.06 323.90 195.29Q324.83 194.52 324.83 193.20L324.83 191.35L320.99 191.35Q319.94 191.35 319.28 191.99Q318.62 192.62 318.62 193.68Q318.62 194.78 319.35 195.42Q320.08 196.06 321.38 196.06" fill="white" fill-opacity="0.7"/>
<path d="M333.57 197.64L331.41 197.64L331.41 184.44L333.57 184.44L333.57 186.96L333.59 186.96Q333.76 185.64 334.67 184.92Q335.58 184.20 337.10 184.20Q339.09 184.20 340.26 185.42Q341.44 186.65 341.44 188.76L341.44 197.64L339.28 197.64L339.28 189.14Q339.28 187.63 338.52 186.83Q337.77 186.02 336.47 186.02Q335.13 186.02 334.35 186.86Q333.57 187.70 333.57 189.24" fill="white" fill-opacity="0.7"/>
<path d="M349.65 197.88Q347.61 197.88 346.41 196.74Q345.21 195.60 345.21 193.75Q345.21 192.53 345.76 191.62Q346.31 190.70 347.30 190.19Q348.28 189.67 349.55 189.67L353.63 189.67L353.63 188.64Q353.63 186.07 350.82 186.07Q349.58 186.07 348.81 186.53Q348.04 186.98 347.99 187.80L345.83 187.80Q345.95 186.24 347.28 185.22Q348.62 184.20 350.82 184.20Q353.22 184.20 354.51 185.35Q355.79 186.50 355.79 188.57L355.79 197.64L353.66 197.64L353.66 195.24L353.61 195.24Q353.42 196.46 352.38 197.17Q351.35 197.88 349.65 197.88M350.18 196.06Q351.76 196.06 352.70 195.29Q353.63 194.52 353.63 193.20L353.63 191.35L349.79 191.35Q348.74 191.35 348.08 191.99Q347.42 192.62 347.42 193.68Q347.42 194.78 348.15 195.42Q348.88 196.06 350.18 196.06" fill="white" fill-opacity="0.7"/>
<path d="M365.56 201.96L361.86 201.96L361.86 199.99L365.58 199.99Q366.71 199.99 367.36 199.36Q368.01 198.72 368.01 197.64L368.01 196.44L368.06 194.28L367.98 194.28Q367.79 195.46 366.86 196.09Q365.92 196.73 364.50 196.73Q362.46 196.73 361.29 195.43Q360.11 194.14 360.11 191.88L360.11 189.10Q360.11 186.84 361.29 185.52Q362.46 184.20 364.50 184.20Q365.92 184.20 366.86 184.87Q367.79 185.54 367.98 186.72L368.03 186.72L368.03 184.44L370.17 184.44L370.17 197.64Q370.17 199.63 368.93 200.80Q367.70 201.96 365.56 201.96M365.15 194.93Q366.50 194.93 367.26 194.09Q368.03 193.25 368.03 191.76L368.03 189.24Q368.03 187.75 367.26 186.91Q366.50 186.07 365.15 186.07Q363.78 186.07 363.03 186.86Q362.27 187.66 362.27 189L362.27 192Q362.27 193.34 363.03 194.14Q363.78 194.93 365.15 194.93" fill="white" fill-opacity="0.7"/>
<path d="M385.72 197.64L374.44 197.64L374.44 195.67L379.12 195.67L379.12 186.41L374.92 186.41L374.92 184.44L381.28 184.44L381.28 195.67L385.72 195.67L385.72 197.64M379.96 182.06Q379.17 182.06 378.71 181.66Q378.26 181.25 378.26 180.55Q378.26 179.83 378.71 179.41Q379.17 178.99 379.96 178.99Q380.75 178.99 381.21 179.41Q381.66 179.83 381.66 180.55Q381.66 181.25 381.21 181.66Q380.75 182.06 379.96 182.06" fill="white" fill-opacity="0.7"/>
<path d="M391.17 197.64L389.01 197.64L389.01 184.44L391.17 184.44L391.17 186.96L391.19 186.96Q391.36 185.64 392.27 184.92Q393.18 184.20 394.70 184.20Q396.69 184.20 397.86 185.42Q399.04 186.65 399.04 188.76L399.04 197.64L396.88 197.64L396.88 189.14Q396.88 187.63 396.12 186.83Q395.37 186.02 394.07 186.02Q392.73 186.02 391.95 186.86Q391.17 187.70 391.17 189.24" fill="white" fill-opacity="0.7"/>
<path d="M408.76 201.96L405.06 201.96L405.06 199.99L408.78 199.99Q409.91 199.99 410.56 199.36Q411.21 198.72 411.21 197.64L411.21 196.44L411.26 194.28L411.18 194.28Q410.99 195.46 410.06 196.09Q409.12 196.73 407.70 196.73Q405.66 196.73 404.49 195.43Q403.31 194.14 403.31 191.88L403.31 189.10Q403.31 186.84 404.49 185.52Q405.66 184.20 407.70 184.20Q409.12 184.20 410.06 184.87Q410.99 185.54 411.18 186.72L411.23 186.72L411.23 184.44L413.37 184.44L413.37 197.64Q413.37 199.63 412.13 200.80Q410.90 201.96 408.76 201.96M408.35 194.93Q409.70 194.93 410.46 194.09Q411.23 193.25 411.23 191.76L411.23 189.24Q411.23 187.75 410.46 186.91Q409.70 186.07 408.35 186.07Q406.98 186.07 406.23 186.86Q405.47 187.66 405.47 189L405.47 192Q405.47 193.34 406.23 194.14Q406.98 194.93 408.35 194.93" fill="white" fill-opacity="0.7"/>
<path d="M438.66 197.64L435.71 197.64L431.20 180.12L433.41 180.12L436.41 192.05Q436.72 193.30 436.92 194.35Q437.13 195.41 437.22 195.96Q437.32 195.41 437.55 194.34Q437.78 193.27 438.09 192.02L440.97 180.12L443.20 180.12" fill="white" fill-opacity="0.7"/>
<path d="M451.70 197.88Q449.15 197.88 447.64 196.54Q446.13 195.19 446.13 192.84L448.29 192.84Q448.29 194.30 449.22 195.13Q450.16 195.96 451.70 195.96Q453.18 195.96 454.07 195.10Q454.96 194.23 454.96 192.84Q454.96 191.78 454.40 191Q453.83 190.22 452.78 189.94L450.11 189.19Q448.46 188.71 447.51 187.48Q446.56 186.24 446.56 184.56Q446.56 183.17 447.18 182.11Q447.81 181.06 448.94 180.47Q450.06 179.88 451.53 179.88Q453.02 179.88 454.16 180.47Q455.30 181.06 455.94 182.10Q456.59 183.14 456.59 184.51L454.43 184.51Q454.43 183.31 453.62 182.56Q452.80 181.80 451.53 181.80Q450.26 181.80 449.46 182.56Q448.67 183.31 448.67 184.51Q448.67 185.47 449.19 186.16Q449.70 186.84 450.64 187.10L453.38 187.87Q455.13 188.35 456.10 189.68Q457.07 191.02 457.07 192.84Q457.07 195.14 455.61 196.51Q454.14 197.88 451.70 197.88" fill="white" fill-opacity="0.7"/>
<path d="M480.59 197.88Q478.19 197.88 476.80 196.54Q475.41 195.19 475.41 192.84L475.41 184.92Q475.41 182.57 476.80 181.22Q478.19 179.88 480.59 179.88Q482.94 179.88 484.34 181.24Q485.73 182.59 485.73 184.92L483.57 184.92Q483.57 183.43 482.79 182.63Q482.01 181.82 480.59 181.82Q479.18 181.82 478.37 182.63Q477.57 183.43 477.57 184.92L477.57 192.84Q477.57 194.33 478.37 195.13Q479.18 195.94 480.59 195.94Q482.01 195.94 482.79 195.13Q483.57 194.33 483.57 192.84L485.73 192.84Q485.73 195.17 484.34 196.52Q482.94 197.88 480.59 197.88" fill="white" fill-opacity="0.7"/>
<path d="M494.80 197.83Q492.42 197.83 491.02 196.44Q489.62 195.05 489.62 192.55L489.62 189.53Q489.62 187.01 491.01 185.63Q492.40 184.25 494.80 184.25Q497.20 184.25 498.59 185.63Q499.98 187.01 499.98 189.53L499.98 192.55Q499.98 195.05 498.58 196.44Q497.18 197.83 494.80 197.83M494.80 195.91Q496.22 195.91 497.02 195.12Q497.82 194.33 497.82 192.79L497.82 189.29Q497.82 187.75 497.02 186.96Q496.22 186.17 494.80 186.17Q493.41 186.17 492.59 186.96Q491.78 187.75 491.78 189.29L491.78 192.79Q491.78 194.33 492.59 195.12Q493.41 195.91 494.80 195.91" fill="white" fill-opacity="0.7"/>
<path d="M508.43 197.88Q506.46 197.88 505.28 196.56Q504.09 195.24 504.09 192.98L504.09 189.12Q504.09 186.84 505.26 185.52Q506.44 184.20 508.43 184.20Q509.92 184.20 510.89 184.94Q511.86 185.69 512.06 186.96L512.08 186.96L512.03 183.96L512.03 180.12L514.19 180.12L514.19 197.64L512.03 197.64L512.03 195.12L512.01 195.12Q511.84 196.42 510.88 197.15Q509.92 197.88 508.43 197.88M509.15 196.01Q510.50 196.01 511.26 195.17Q512.03 194.33 512.03 192.84L512.03 189.24Q512.03 187.75 511.26 186.91Q510.50 186.07 509.15 186.07Q507.78 186.07 507.02 186.78Q506.25 187.49 506.25 189.12L506.25 192.96Q506.25 194.57 507.02 195.29Q507.78 196.01 509.15 196.01" fill="white" fill-opacity="0.7"/>
<path d="M523.60 197.88Q521.27 197.88 519.84 196.48Q518.42 195.07 518.42 192.60L518.42 189.48Q518.42 187.01 519.84 185.60Q521.27 184.20 523.60 184.20Q525.16 184.20 526.32 184.82Q527.49 185.45 528.14 186.58Q528.78 187.70 528.78 189.24L528.78 191.59L520.53 191.59L520.53 192.84Q520.53 194.30 521.37 195.16Q522.21 196.01 523.60 196.01Q524.80 196.01 525.58 195.54Q526.36 195.07 526.53 194.28L528.69 194.28Q528.47 195.94 527.08 196.91Q525.69 197.88 523.60 197.88M520.53 189.24L520.53 189.91L526.67 189.91L526.67 189.24Q526.67 187.68 525.87 186.83Q525.06 185.98 523.60 185.98Q522.14 185.98 521.33 186.83Q520.53 187.68 520.53 189.24" fill="white" fill-opacity="0.7"/>
<path d="M538.53 197.83L537.47 197.83Q535.26 197.83 534.05 196.84Q532.84 195.84 532.84 194.02L535 194.02Q535 194.93 535.65 195.44Q536.30 195.96 537.47 195.96L538.53 195.96Q539.73 195.96 540.39 195.43Q541.05 194.90 541.05 193.94Q541.05 192.24 539.49 192.02L535.84 191.50Q534.50 191.30 533.75 190.38Q533.01 189.46 533.01 187.94Q533.01 186.22 534.20 185.23Q535.38 184.25 537.47 184.25L538.53 184.25Q540.45 184.25 541.66 185.20Q542.87 186.14 542.97 187.68L540.78 187.68Q540.74 186.98 540.12 186.53Q539.51 186.07 538.53 186.07L537.47 186.07Q536.37 186.07 535.74 186.58Q535.12 187.08 535.12 187.94Q535.12 189.34 536.39 189.53L539.80 190.01Q543.16 190.49 543.16 193.94Q543.16 195.79 541.95 196.81Q540.74 197.83 538.53 197.83" fill="white" fill-opacity="0.7"/>
<path d="M549.57 201.96L547.41 201.96L547.41 184.44L549.57 184.44L549.57 186.96L549.59 186.96Q549.76 185.66 550.72 184.93Q551.68 184.20 553.17 184.20Q555.16 184.20 556.34 185.51Q557.51 186.82 557.51 189.10L557.51 192.96Q557.51 195.24 556.34 196.56Q555.16 197.88 553.17 197.88Q551.68 197.88 550.72 197.14Q549.76 196.39 549.59 195.12L549.52 195.12L549.57 198.12L549.57 201.96M552.45 196.01Q553.82 196.01 554.58 195.29Q555.35 194.57 555.35 192.96L555.35 189.12Q555.35 187.49 554.58 186.78Q553.82 186.07 552.45 186.07Q551.13 186.07 550.35 186.91Q549.57 187.75 549.57 189.24L549.57 192.84Q549.57 194.33 550.35 195.17Q551.13 196.01 552.45 196.01" fill="white" fill-opacity="0.7"/>
<path d="M565.65 197.88Q563.61 197.88 562.41 196.74Q561.21 195.60 561.21 193.75Q561.21 192.53 561.76 191.62Q562.31 190.70 563.30 190.19Q564.28 189.67 565.55 189.67L569.63 189.67L569.63 188.64Q569.63 186.07 566.82 186.07Q565.58 186.07 564.81 186.53Q564.04 186.98 563.99 187.80L561.83 187.80Q561.95 186.24 563.28 185.22Q564.62 184.20 566.82 184.20Q569.22 184.20 570.51 185.35Q571.79 186.50 571.79 188.57L571.79 197.64L569.66 197.64L569.66 195.24L569.61 195.24Q569.42 196.46 568.38 197.17Q567.35 197.88 565.65 197.88M566.18 196.06Q567.76 196.06 568.70 195.29Q569.63 194.52 569.63 193.20L569.63 191.35L565.79 191.35Q564.74 191.35 564.08 191.99Q563.42 192.62 563.42 193.68Q563.42 194.78 564.15 195.42Q564.88 196.06 566.18 196.06" fill="white" fill-opacity="0.7"/>
<path d="M581.39 197.88Q578.99 197.88 577.55 196.54Q576.11 195.19 576.11 192.84L576.11 189.24Q576.11 186.89 577.55 185.54Q578.99 184.20 581.39 184.20Q583.67 184.20 585.08 185.42Q586.48 186.65 586.55 188.76L584.39 188.76Q584.32 187.49 583.53 186.80Q582.74 186.12 581.39 186.12Q579.98 186.12 579.12 186.92Q578.27 187.73 578.27 189.22L578.27 192.84Q578.27 194.33 579.12 195.14Q579.98 195.96 581.39 195.96Q582.74 195.96 583.53 195.26Q584.32 194.57 584.39 193.32L586.55 193.32Q586.48 195.43 585.08 196.66Q583.67 197.88 581.39 197.88" fill="white" fill-opacity="0.7"/>
<path d="M595.60 197.88Q593.27 197.88 591.84 196.48Q590.42 195.07 590.42 192.60L590.42 189.48Q590.42 187.01 591.84 185.60Q593.27 184.20 595.60 184.20Q597.16 184.20 598.32 184.82Q599.49 185.45 600.14 186.58Q600.78 187.70 600.78 189.24L600.78 191.59L592.53 191.59L592.53 192.84Q592.53 194.30 593.37 195.16Q594.21 196.01 595.60 196.01Q596.80 196.01 597.58 195.54Q598.36 195.07 598.53 194.28L600.69 194.28Q600.47 195.94 599.08 196.91Q597.69 197.88 595.60 197.88M592.53 189.24L592.53 189.91L598.67 189.91L598.67 189.24Q598.67 187.68 597.87 186.83Q597.06 185.98 595.60 185.98Q594.14 185.98 593.33 186.83Q592.53 187.68 592.53 189.24" fill="white" fill-opacity="0.7"/>
<path d="M610.53 197.83L609.47 197.83Q607.26 197.83 606.05 196.84Q604.84 195.84 604.84 194.02L607 194.02Q607 194.93 607.65 195.44Q608.30 195.96 609.47 195.96L610.53 195.96Q611.73 195.96 612.39 195.43Q613.05 194.90 613.05 193.94Q613.05 192.24 611.49 192.02L607.84 191.50Q606.50 191.30 605.75 190.38Q605.01 189.46 605.01 187.94Q605.01 186.22 606.20 185.23Q607.38 184.25 609.47 184.25L610.53 184.25Q612.45 184.25 613.66 185.20Q614.87 186.14 614.97 187.68L612.78 187.68Q612.74 186.98 612.12 186.53Q611.51 186.07 610.53 186.07L609.47 186.07Q608.37 186.07 607.74 186.58Q607.12 187.08 607.12 187.94Q607.12 189.34 608.39 189.53L611.80 190.01Q615.16 190.49 615.16 193.94Q615.16 195.79 613.95 196.81Q612.74 197.83 610.53 197.83" fill="white" fill-opacity="0.7"/>
<path d="M97.14 136.06L84.37 136.06L66.42 65.98L76.21 65.98L87.82 113.21Q88.98 117.72 89.79 121.90Q90.61 126.08 90.99 128.28Q91.28 126.08 92.19 121.85Q93.10 117.63 94.16 113.12L105.39 65.98L115.18 65.98L97.14 136.06M167.50 136.06L129.30 136.06L129.30 127.42L143.60 127.42L143.60 74.62L129.30 74.62L129.30 65.98L167.50 65.98L167.50 74.62L153.20 74.62L153.20 127.42L167.50 127.42L167.50 136.06M206.38 137.02Q196.02 137.02 189.87 131.60Q183.73 126.17 183.73 116.67L193.23 116.67Q193.23 122.24 196.78 125.40Q200.34 128.57 206.38 128.57Q212.14 128.57 215.55 125.36Q218.96 122.14 218.96 116.76Q218.96 112.73 216.75 109.71Q214.54 106.68 210.51 105.63L200.14 102.84Q193.33 100.92 189.34 95.88Q185.36 90.84 185.36 83.93Q185.36 78.27 187.90 74Q190.45 69.72 195.06 67.37Q199.66 65.02 205.71 65.02Q211.86 65.02 216.51 67.37Q221.17 69.72 223.76 73.95Q226.35 78.17 226.35 83.74L216.94 83.74Q216.94 79.13 213.82 76.25Q210.70 73.37 205.71 73.37Q200.72 73.37 197.70 76.25Q194.67 79.13 194.67 83.74Q194.67 87.48 196.69 90.03Q198.70 92.57 202.35 93.63L213.01 96.51Q220.21 98.43 224.24 103.85Q228.27 109.28 228.27 116.76Q228.27 122.91 225.58 127.47Q222.90 132.03 217.95 134.52Q213.01 137.02 206.38 137.02M263.60 137.02Q253.71 137.02 248.38 131.55Q243.06 126.08 243.06 116.67L243.06 65.98L252.56 65.98L252.56 116.67Q252.56 122.24 255.30 125.40Q258.03 128.57 263.60 128.57Q269.07 128.57 271.90 125.40Q274.74 122.24 274.74 116.67L274.74 65.98L284.24 65.98L284.24 116.67Q284.24 126.17 278.91 131.60Q273.58 137.02 263.60 137.02M306.51 136.06L296.82 136.06L314.96 65.98L327.54 65.98L345.58 136.06L335.89 136.06L331.47 117.82L310.93 117.82L306.51 136.06M317.94 88.92L312.85 109.95L329.55 109.95L324.56 89.02Q323.12 83.26 322.26 79.23Q321.39 75.20 321.20 73.76Q321.01 75.20 320.14 79.23Q319.28 83.26 317.94 88.92M402.99 136.06L362.29 136.06L362.29 65.98L371.79 65.98L371.79 127.42L402.99 127.42L402.99 136.06M436.78 137.02Q426.42 137.02 420.27 131.60Q414.13 126.17 414.13 116.67L423.63 116.67Q423.63 122.24 427.18 125.40Q430.74 128.57 436.78 128.57Q442.54 128.57 445.95 125.36Q449.36 122.14 449.36 116.76Q449.36 112.73 447.15 109.71Q444.94 106.68 440.91 105.63L430.54 102.84Q423.73 100.92 419.74 95.88Q415.76 90.84 415.76 83.93Q415.76 78.27 418.30 74Q420.85 69.72 425.46 67.37Q430.06 65.02 436.11 65.02Q442.26 65.02 446.91 67.37Q451.57 69.72 454.16 73.95Q456.75 78.17 456.75 83.74L447.34 83.74Q447.34 79.13 444.22 76.25Q441.10 73.37 436.11 73.37Q431.12 73.37 428.10 76.25Q425.07 79.13 425.07 83.74Q425.07 87.48 427.09 90.03Q429.10 92.57 432.75 93.63L443.41 96.51Q450.61 98.43 454.64 103.85Q458.67 109.28 458.67 116.76Q458.67 122.91 455.98 127.47Q453.30 132.03 448.35 134.52Q443.41 137.02 436.78 137.02M498.80 136.06L489.30 136.06L489.30 74.62L470.29 74.62L470.29 65.98L517.71 65.98L517.71 74.62L498.80 74.62L498.80 136.06M551.60 137.02Q541.71 137.02 536.38 131.55Q531.06 126.08 531.06 116.67L531.06 65.98L540.56 65.98L540.56 116.67Q540.56 122.24 543.30 125.40Q546.03 128.57 551.60 128.57Q557.07 128.57 559.90 125.40Q562.74 122.24 562.74 116.67L562.74 65.98L572.24 65.98L572.24 116.67Q572.24 126.17 566.91 131.60Q561.58 137.02 551.60 137.02M607.66 136.06L588.85 136.06L588.85 65.98L607.66 65.98Q614.48 65.98 619.52 68.62Q624.56 71.26 627.34 76.01Q630.13 80.76 630.13 87.20L630.13 114.75Q630.13 121.18 627.34 125.98Q624.56 130.78 619.52 133.42Q614.48 136.06 607.66 136.06M598.35 74.43L598.35 127.61L607.66 127.61Q613.71 127.61 617.17 124.16Q620.62 120.70 620.62 114.75L620.62 87.20Q620.62 81.24 617.17 77.84Q613.71 74.43 607.66 74.43L598.35 74.43M685.90 136.06L647.70 136.06L647.70 127.42LNaN 127.42LNaN 74.62L647.70 74.62L647.70 65.98L685.90 65.98L685.90 74.62L671.60 74.62L671.60 127.42L685.90 127.42L685.90 136.06M724.40 137.02Q714.80 137.02 709.23 131.45Q703.66 125.88 703.66 115.71L703.66 86.24Q703.66 76.16 709.23 70.59Q714.80 65.02 724.40 65.02QNaN 65.02 739.57 70.54Q745.14 76.06 745.14 86.24L745.14 115.71Q745.14 125.88 739.57 131.45QNaN 137.02 724.40 137.02M724.40 128.57Q729.78 128.57 732.70 125.50Q735.63 122.43 735.63 116.67L735.63 85.28Q735.63 79.61 732.75 76.54Q729.87 73.47 724.40 73.47Q718.93 73.47 716.05 76.54Q713.17 79.61 713.17 85.28L713.17 116.67Q713.17 122.43 716.10 125.50Q719.02 128.57 724.40 128.57" fill="url(#paint2_linear_0_1)"/>
<g id="Group 1">
<rect id="Rectangle 1" x="26" y="168" width="12" height="184" rx="5" fill="url(#paint3_linear_0_1)" fill-opacity="0.9"/>
</g>
<g id="Group 1_2">
<rect id="Rectangle 2" x="26" y="38" width="12" height="119" rx="5" fill="url(#paint4_linear_0_1)" fill-opacity="0.9"/>
</g>
<ellipse id="Ellipse 1" cx="148.5" cy="573" rx="215.5" ry="214" fill="url(#paint5_linear_0_1)" fill-opacity="0.4"/>
<rect id="Rectangle 3" x="1229" y="48" width="300" height="300" rx="25" fill="#FFFBFB" fill-opacity="0.9"/>
<g id="placeholder-logo"><g transform="translate(1229,48) translate(0.0,60.0) scale(1.2000)"><g fill="#666666">
  <path d="m88.05,27.65c-3.15,4 -3.2,51.2 -0.05,54.35c2.75,2.75 71.7,3.15 74.45,0.45c2.85,-2.9 2.3,-53.85 -0.65,-55.9c-1.95,-1.35 -7.15,-1.55 -36.95,-1.55l-34.7,0l-2.1,2.65zm69.45,3.35c0.65,0 1,8.6 1,23.75l0,23.75l-33,0l-33,0l-0.25,-23c-0.15,-12.6 -0.1,-23.45 0.15,-24.1c0.35,-0.85 8.9,-1.05 32.25,-0.75c17.55,0.2 32.3,0.35 32.85,0.35z"/>
  <path d="m99.15,37.3c-6.85,7.35 4.25,17.35 11.4,10.25c1.35,-1.35 2.45,-3.65 2.45,-5.05c0,-6.45 -9.35,-9.95 -13.85,-5.2z"/>
  <path d="m135,42.5c-0.7,0.85 -5.25,5.15 -10.1,9.6l-8.85,8.1l-3.2,-3.2l-3.15,-3.15l-6.35,6.3c-5.55,5.5 -6.35,6.75 -6.35,10.05l0,3.8l28.5,0l28.5,0l0,-8.6l0,-8.55l-8.15,-7.7c-9.35,-8.85 -9.15,-8.7 -10.85,-6.65zm7.25,15.2c0.95,0.9 1.75,2.9 1.75,4.45c6.35,-5.05 4.75,-7.15 4.9,-11.55c0.95,0 0,0 0,0l-6.65,7.1z"/>
  <path d="m53.65,110.75c0.1,4.8 0.45,8.65 0.75,8.5c0.35,-0.15 1.3,-0.25 2.1,-0.25c1.1,0 1.5,-1.2 1.5,-4.75l0,-4.75l3.25,5c4.9,7.5 6.2,6.75 6.55,-3.75c0.25,-8.15 0.15,-8.75 -1.7,-8.75c-1.65,0 -2.05,0.8 -2.3,4.75l-0.3,4.75l-2.8,-4.75c-4.85,-8.25 -7.25,-6.9 -7.05,4z"/>
  <path d="m91,108.9c0,9.65 0.3,10.1 6.1,10.1c5.8,0 7.15,-2.65 1.65,-3.2l-3.25,-0.3l-0.3,-6.75c-0.25,-5.95 -0.55,-6.75 -2.25,-6.75c-1.75,0 -1.95,0.7 -1.95,6.9z"/>
  <path d="m151,102.45c0,0.25 1,2.15 2.25,4.2c1.2,2.1 2.45,5.8 2.75,8.25c0.65,5.9 4,6.95 4,1.25c0.05,-2.1 1.25,-5.85 2.95,-8.9l2.9,-5.25l-2.5,0c-1.8,0 -2.8,0.85 -3.75,3.1l-1.3,3.05l-1.25,-3.05c-1.1,-2.6 -6.05,-4.8 -6.05,-2.65z"/>
  <path d="m191,107.45c0,9.05 3.4,8.85 4.25,-0.2c0.45,-5 0.35,-5.25 -1.9,-5.25c-2.2,0 -2.35,0.4 -2.35,5.45z"/>
  <path d="m180.8,104.75c-1.3,5.35 0.65,13.6 3.45,14.35c2.3,0.6 2.75,0.4 2.75,-1.2c0,-1.05 -0.45,-1.9 -1,-1.9c-0.55,0 -1,-1.6 -1,-3.5c0,-1.95 0.45,-3.5 1,-3.5c0.55,0 1,-0.7 1,-1.5c0,-0.85 -0.45,-1.5 -1,-1.5c-0.55,0 -1,-0.7 -1,-1.5c0,-2.1 -3.65,-1.9 -4.2,0.25z"/>
  <path d="m71.55,106.55c-2.2,2.25 -2.05,9.7 0.3,11.8c4.5,4.1 10.15,0.75 10.15,-6.1c0,-4.85 -2,-7.25 -6,-7.25c-1.55,0 -3.55,0.7 -4.45,1.55zm6.25,5.8c0.25,3.05 0,3.65 -1.6,3.65c-2.3,0 -3.25,-2.65 -2.05,-5.85c1.25,-3.35 3.3,-2.1 3.65,2.2z"/>
  <path d="m105.75,106.1c-2.5,1.45 -2.45,9.95 0.1,12.25c4.3,3.9 10.15,0.35 10.15,-6.2c0,-6 -5.15,-9.05 -10.25,-6.05zm6.05,6.25c0.25,3.05 0,3.65 -1.6,3.65c-2.3,0 -3.25,-2.65 -2.05,-5.85c1.25,-3.35 3.3,-2.1 3.65,2.2z"/>
  <path d="m119.2,106.2c-3.8,3.8 -0.4,12.55 4.4,11.35c1.9,-0.45 2.45,-0.3 2.15,0.65c-0.25,0.7 -1.55,1.2 -2.85,1.1c-4.05,-0.3 -5.35,0.45 -3.85,2.25c0.85,1.05 2.6,1.45 5.35,1.25l4.1,-0.3l0.3,-8.75l0.3,-8.75l-4.35,0c-2.4,0 -4.9,0.55 -5.55,1.2zm6.6,4.45c0.4,2.85 -2.15,4.85 -3.75,2.95c-0.9,-1.1 -0.9,-2 -0.05,-3.6c1.35,-2.5 3.4,-2.15 3.8,0.65z"/>
  <path d="m133.55,106.55c-2.2,2.25 -2.05,9.7 0.3,11.8c4.5,4.1 10.15,0.75 10.15,-6.1c0,-4.85 -2,-7.25 -6,-7.25c-1.55,0 -3.55,0.7 -4.45,1.55zm6.25,5.8c0.25,3.05 0,3.65 -1.6,3.65c-2.3,0 -3.25,-2.65 -2.05,-5.85c1.25,-3.35 3.3,-2.1 3.65,2.2z"/>
  <path d="m167.65,106.85c-3.9,4.3 -0.75,13.15 4.7,13.15c2.4,0 5.65,-2.75 5.65,-4.85c0,-1.4 -2.65,-1.55 -3.5,-0.15c-0.95,1.55 -4.5,1.15 -4.5,-0.5c0,-1.1 1.1,-1.5 4,-1.5c3.15,0 4,-0.35 4,-1.8c0,-5.3 -6.85,-8.25 -10.35,-4.35z"/>
  <path d="m191,117.5c0,2.15 0.4,2.6 2.25,2.3c1.5,-0.2 2.25,-1 2.25,-2.3c0,-1.3 -0.75,-2.1 -2.25,-2.3c-1.85,-0.3 -2.25,0.15 -2.25,2.3z"/>
 </g></g></g>
</g>
<defs>
<linearGradient id="paint0_linear_0_1" x1="0" y1="198" x2="1584" y2="198" gradientUnits="userSpaceOnUse">
<stop stop-color="#3D052C"/>
<stop offset="1"/>
</linearGradient>
<linearGradient id="paint1_linear_0_1" x1="323" y1="-224" x2="323" y2="352" gradientUnits="userSpaceOnUse">
<stop stop-color="#28F6F2" stop-opacity="0.4"/>
<stop offset="1" stop-color="#17908E" stop-opacity="0.7"/>
</linearGradient>
<linearGradient id="paint2_linear_0_1" x1="148.5" y1="38" x2="148.5" y2="140" gradientUnits="userSpaceOnUse">
<stop stop-color="white"/>
<stop offset="1" stop-color="#999999"/>
</linearGradient>
<linearGradient id="paint3_linear_0_1" x1="38" y1="260" x2="26" y2="260" gradientUnits="userSpaceOnUse">
<stop stop-color="#D9D9D9"/>
<stop offset="1" stop-color="#737373"/>
</linearGradient>
<linearGradient id="paint4_linear_0_1" x1="38" y1="97.5" x2="26" y2="97.5" gradientUnits="userSpaceOnUse">
<stop stop-color="#D9D9D9"/>
<stop offset="1" stop-color="#737373"/>
</linearGradient>
<linearGradient id="paint5_linear_0_1" x1="27.5" y1="434.5" x2="148.5" y2="787" gradientUnits="userSpaceOnUse">
<stop stop-color="#2E21BC"/>
<stop offset="1" stop-color="#150F56"/>
</linearGradient>
<clipPath id="clip0_0_1">
<rect width="1584" height="396" fill="white"/>
</clipPath>
</defs>
</svg>
